<svg xmlns="http://www.w3.org/2000/svg" viewBox="0 0 64 64"><title>Internet, laptop, computer, setting, internet of things, </title><g id="Flat"><path d="M3,53H61a0,0,0,0,1,0,0v4a4,4,0,0,1-4,4H7a4,4,0,0,1-4-4V53A0,0,0,0,1,3,53Z" style="fill:#1f8ecc"/><path d="M58,38V23a2,2,0,0,0-2-2H8a2,2,0,0,0-2,2V53H58V38Z" style="fill:#1f8ecc"/><path d="M24,53H40a0,0,0,0,1,0,0v2a2,2,0,0,1-2,2H26a2,2,0,0,1-2-2V53A0,0,0,0,1,24,53Z" style="fill:#026f8c"/><rect x="50" y="56" width="2" height="2" style="fill:#c1272d"/><rect x="54" y="56" width="2" height="2" style="fill:#009245"/><rect x="8" y="56" width="8" height="2" style="fill:#0468a0"/><rect x="10" y="25" width="44" height="28" style="fill:#54caea"/><path d="M24,50A11,11,0,1,1,35,39,11.013,11.013,0,0,1,24,50Zm0-20a9,9,0,1,0,9,9A9.01,9.01,0,0,0,24,30Z" style="fill:#05a4db"/><path d="M24,50c-3.364,0-6-4.832-6-11s2.636-11,6-11,6,4.832,6,11S27.364,50,24,50Zm0-20c-1.892,0-4,3.7-4,9s2.108,9,4,9,4-3.7,4-9S25.892,30,24,30Z" style="fill:#05a4db"/><path d="M34,40H14a1,1,0,0,1,0-2H34a1,1,0,0,1,0,2Z" style="fill:#05a4db"/><rect x="23" y="29" width="2" height="20" style="fill:#05a4db"/><rect x="38" y="32" width="13" height="2" style="fill:#05a4db"/><rect x="38" y="40" width="13" height="2" style="fill:#05a4db"/><rect x="38" y="36" width="9" height="2" style="fill:#05a4db"/><rect x="49" y="36" width="2" height="2" style="fill:#05a4db"/><rect x="38" y="44" width="9" height="2" style="fill:#05a4db"/><rect x="49" y="44" width="2" height="2" style="fill:#05a4db"/><path d="M49,21V17.571l-3.543-.442a13.676,13.676,0,0,0-1.915-4.609l2.2-2.824L42.3,6.262l-2.823,2.2a13.656,13.656,0,0,0-4.609-1.915L34.429,3H29.571l-.442,3.543A13.647,13.647,0,0,0,24.52,8.458L21.7,6.262,18.262,9.7l2.2,2.824a13.656,13.656,0,0,0-1.915,4.609L15,17.571V21Z" style="fill:#f7931e"/><path d="M39,20a6.632,6.632,0,0,1-.07,1H25.07A6.632,6.632,0,0,1,25,20a5.474,5.474,0,0,1,.08-1,6.991,6.991,0,0,1,13.84,0A5.474,5.474,0,0,1,39,20Z" style="fill:#f2f2f2"/><rect x="54" y="51" width="4" height="2" style="fill:#1885b5"/><rect x="6" y="51" width="4" height="2" style="fill:#1885b5"/><rect x="10" y="51" width="44" height="2" style="fill:#47c2d6"/><path d="M25.07,21H15V20H25A6.632,6.632,0,0,0,25.07,21Z" style="fill:#e27a13"/><path d="M49,20v1H38.93A6.632,6.632,0,0,0,39,20Z" style="fill:#e27a13"/></g></svg>